Coordinates
version=1
nRows=10
nColumns=22
inDegrees=yes

Units are S.I. units (second, meters, Newtons, ...)
If the header above contains a line with 'inDegrees', this indicates whether rotational values are in degrees (yes) or radians (no).

endheader
time	pelvis_tilt	pelvis_list	pelvis_rotation	pelvis_tx	pelvis_ty	pelvis_tz	hip_flexion_r	hip_adduction_r	hip_rotation_r	knee_angle_r	ankle_angle_r	subtalar_angle_r	hip_flexion_l	hip_adduction_l	hip_rotation_l	knee_angle_l	ankle_angle_l	subtalar_angle_l	lumbar_extension	lumbar_bending	lumbar_rotation
      0.01000000	     -1.95955715	      2.70205820	    177.74431196	      0.32803460	      0.93147752	      1.00727698	     -3.24292096	     -2.85874650	      2.69592818	     -2.43673983	      2.03232127	      8.56049849	     -4.12038528	     -8.71505957	    -14.28298673	     -7.27260149	      7.51961774	      9.19719719	     -3.56045882	     -0.70531633	      2.83435175
      0.02000000	     -1.97564345	      2.72665675	    177.73033480	      0.32813514	      0.93152683	      1.00721937	     -3.24220928	     -2.82996577	      2.67511984	     -2.45656464	      2.01105461	      8.54473815	     -4.10803619	     -8.75137627	    -14.30249285	     -7.32890668	      7.51102662	      9.21939298	     -3.58457784	     -0.68062959	      2.83911488
      0.03000000	     -1.98848687	      2.77106028	    177.72043207	      0.32824644	      0.93157392	      1.00713176	     -3.24392974	     -2.77656327	      2.64134764	     -2.46381696	      1.97640438	      8.52917732	     -4.09343484	     -8.81307551	    -14.33177224	     -7.38142173	      7.52864973	      9.24754016	     -3.60678329	     -0.63831745	      2.82860647
      0.04000000	     -2.00325126	      2.80871438	    177.70328331	      0.32838309	      0.93162995	      1.00704312	     -3.24143094	     -2.73168741	      2.61421387	     -2.47765202	      1.94097758	      8.51990762	     -4.07932003	     -8.86523965	    -14.34233403	     -7.43783794	      7.53845486	      9.26828489	     -3.63258864	     -0.60121733	      2.83075160
      0.05000000	     -2.01469195	      2.85789129	    177.68358826	      0.32851889	      0.93168327	      1.00692899	     -3.23449612	     -2.67267485	      2.57606828	     -2.49184907	      1.90034198	      8.51174930	     -4.06815539	     -8.93167880	    -14.37702463	     -7.48345272	      7.54924928	      9.28947377	     -3.65470479	     -0.55305925	      2.82494732
      0.06000000	     -2.02699736	      2.90165236	    177.65846271	      0.32867089	      0.93173800	      1.00681182	     -3.22518356	     -2.62030213	      2.55185213	     -2.50974859	      1.86151235	      8.50504046	     -4.05783954	     -8.99047719	    -14.39814770	     -7.52981124	      7.55774989	      9.30887434	     -3.67986136	     -0.51116649	      2.83297101
      0.07000000	     -2.03692838	      2.94985126	    177.63064449	      0.32880207	      0.93178840	      1.00669071	     -3.21449576	     -2.56237186	      2.53117585	     -2.52711166	      1.82011044	      8.49811692	     -4.05537654	     -9.05224050	    -14.43879679	     -7.55937870	      7.56596593	      9.32928545	     -3.69856784	     -0.46149177	      2.83200208
      0.08000000	     -2.04910318	      2.99101636	    177.60229825	      0.32892792	      0.93183278	      1.00658091	     -3.20893886	     -2.51363164	      2.53469014	     -2.54034251	      1.78171892	      8.49068563	     -4.05794654	     -9.10435024	    -14.46921013	     -7.58572196	      7.57512750	      9.35122827	     -3.71976763	     -0.41892969	      2.83977981
      0.09000000	     -2.05257795	      2.99401017	    177.58479431	      0.32901013	      0.93185585	      1.00652164	     -3.20581396	     -2.50911256	      2.53368004	     -2.53661007	      1.77959484	      8.49018179	     -4.06016453	     -9.10853503	    -14.46971761	     -7.58778997	      7.57546910	      9.35272004	     -3.72151743	     -0.41799076	      2.83399912
      0.10000000	     -2.08432764	      3.04565224	    177.54522510	      0.32906299	      0.93191399	      1.00643463	     -3.23409538	     -2.45421701	      2.60559023	     -2.53477534	      1.72726610	      8.47648167	     -4.11035057	     -9.16338379	    -14.53861666	     -7.57776585	      7.57946939	      9.38451937	     -3.75641020	     -0.35514022	      2.85160313
